# xmcd CD database file
#
# Track frame offsets:
#	150
#	17625
#	38475
#	62687
#	88375
#	108225
#	127262
#	145825
#	167437
#	187587
#
# Disc length: 2840 seconds
#
# Revision: 0
# Processed by: cddbd v1.5.2PL0 Copyright (c) Steve Scherf et al.
# Submitted via: CDex 1.51
#
DISCID=7b0b160a
DTITLE=Steve Hogg - Various Fools and Vices
DYEAR=1992
DGENRE=Blues
TTITLE0=I'm Not Very Nice
TTITLE1=All Over Bar The Shouting
TTITLE2=Winter Rain (live)
TTITLE3=Love Don't Mean A Thing (live)
TTITLE4=Broken Hearts
TTITLE5=Shadows (I've Got To Be Alone)
TTITLE6=Why Does It Have To Feel So Bad (live)
TTITLE7=Standing On The Corner
TTITLE8=Then Came The Rain
TTITLE9=Bugsy's Theme
EXTD=YEAR: 1992
EXTT0=
EXTT1=
EXTT2=
EXTT3=
EXTT4=
EXTT5=
EXTT6=
EXTT7=
EXTT8=
EXTT9=
PLAYORDER=
